<?xml version="1.0" standalone="no"?>
<!DOCTYPE svg PUBLIC "-//W3C//DTD SVG 20010904//EN"
 "http://www.w3.org/TR/2001/REC-SVG-20010904/DTD/svg10.dtd">
<svg version="1.0" xmlns="http://www.w3.org/2000/svg"
 width="558.000000pt" height="558.000000pt" viewBox="0 0 558.000000 558.000000"
 preserveAspectRatio="xMidYMid meet">
<metadata>
Created by potrace 1.14, written by Peter Selinger 2001-2017
</metadata>
<g transform="translate(0.000000,558.000000) scale(0.100000,-0.100000)"
fill="#000000" stroke="none">
<path d="M1026 3735 c-9 -24 -7 -168 3 -183 5 -8 21 -12 37 -10 l29 3 0 100 0
100 -31 3 c-22 2 -33 -2 -38 -13z"/>
<path d="M2192 3558 c-46 -15 -92 -71 -92 -111 0 -53 32 -92 104 -126 66 -31
91 -57 80 -85 -8 -21 -51 -31 -69 -16 -7 6 -15 21 -17 33 -3 19 -10 22 -50 25
l-48 3 0 -34 c0 -104 170 -155 249 -76 69 69 45 152 -59 205 -79 41 -94 56
-85 83 4 15 15 21 36 21 24 0 32 -6 41 -31 10 -28 13 -30 52 -27 33 2 42 7 44
25 11 75 -98 140 -186 111z"/>
<path d="M2446 3544 c-9 -24 -7 -377 3 -392 5 -8 23 -12 47 -10 l39 3 5 90 5
90 13 -45 c42 -140 42 -140 78 -140 33 0 33 1 54 73 34 119 39 121 39 20 l1
-93 45 0 45 0 0 210 0 210 -55 0 c-65 0 -61 6 -101 -153 -15 -59 -29 -106 -31
-103 -2 2 -16 55 -32 118 -15 64 -31 120 -35 127 -11 18 -113 14 -120 -5z"/>
<path d="M2985 3548 c-30 -92 -105 -363 -105 -383 0 -23 4 -25 44 -25 43 0 45
1 58 43 14 39 17 42 54 45 38 3 40 2 54 -40 14 -40 18 -43 54 -46 68 -6 68
-18 -8 248 -51 176 -47 170 -101 170 -28 0 -47 -5 -50 -12z"/>
<path d="M3255 3548 c-3 -7 -4 -101 -3 -208 l3 -195 45 0 45 0 3 78 c3 74 4
77 27 77 38 0 55 -25 55 -84 0 -63 11 -76 66 -76 l42 0 -5 68 c-3 40 -13 81
-24 101 -20 33 -20 34 1 77 19 38 20 47 9 84 -20 65 -55 83 -166 88 -73 4 -94
1 -98 -10z"/>
<path d="M3560 3540 c-6 -12 -8 -30 -5 -40 5 -16 15 -20 50 -20 l45 0 2 -167
3 -168 45 0 45 0 3 168 2 167 45 0 c47 0 63 19 50 60 -6 19 -15 20 -140 20
-125 0 -135 -1 -145 -20z"/>
<path d="M4105 3548 c-3 -8 -4 -101 -3 -208 l3 -195 45 0 45 0 0 205 0 205
-43 3 c-28 2 -44 -1 -47 -10z"/>
<path d="M4285 3551 c-4 -8 -8 -228 -5 -393 0 -14 9 -18 44 -18 54 0 56 4 57
123 l0 92 55 -108 55 -108 47 3 47 3 3 185 c3 233 4 232 -51 228 l-42 -3 -5
-110 -5 -110 -55 110 -56 110 -41 3 c-23 2 -44 -2 -48 -7z"/>
<path d="M4668 3554 c-5 -4 -8 -99 -8 -212 l0 -204 99 4 c95 3 101 4 131 33
51 49 60 75 60 178 0 81 -3 99 -22 127 -42 61 -70 75 -166 78 -48 2 -90 0 -94
-4z"/>
<path d="M5027 3553 c-4 -3 -7 -98 -7 -210 l0 -203 44 0 c31 0 46 5 50 16 3 9
6 96 6 194 0 98 -3 185 -6 194 -6 16 -73 23 -87 9z"/>
<path d="M5280 3541 c-5 -11 -16 -43 -24 -73 -8 -29 -30 -108 -50 -175 -20
-67 -36 -129 -36 -138 0 -11 11 -15 44 -15 48 0 56 6 66 54 5 29 9 31 50 31
43 0 45 -1 56 -40 10 -38 13 -40 54 -43 23 -2 46 0 51 5 8 9 -96 380 -113 401
-17 20 -86 15 -98 -7z"/>
<path d="M417 3482 c-27 -29 -21 -44 41 -105 63 -62 79 -68 107 -37 18 20 18
22 -50 90 -38 39 -72 70 -76 70 -3 0 -13 -8 -22 -18z"/>
<path d="M1607 3434 c-37 -36 -67 -68 -67 -73 0 -13 35 -41 51 -41 8 0 40 27
72 60 61 62 68 88 28 109 -14 8 -30 -3 -84 -55z"/>
<path d="M865 3451 c-11 -5 -29 -18 -39 -30 -13 -14 -31 -21 -56 -21 -57 0
-129 -62 -130 -112 0 -10 -17 -25 -42 -36 -24 -11 -53 -30 -65 -43 -25 -28
-44 -90 -36 -119 4 -15 -4 -31 -25 -53 -53 -55 -65 -110 -35 -172 16 -33 16
-37 0 -70 -31 -65 -21 -112 36 -172 24 -26 31 -43 34 -80 3 -57 25 -89 84
-124 24 -14 46 -34 48 -44 11 -59 76 -105 146 -105 32 0 55 -6 72 -20 31 -24
90 -26 122 -4 13 9 32 35 42 58 17 38 19 74 19 518 0 292 -4 496 -10 525 -16
71 -46 104 -100 109 -25 2 -54 0 -65 -5z"/>
<path d="M1153 3448 c-13 -6 -32 -30 -43 -53 -19 -40 -20 -60 -20 -559 0 -542
1 -549 43 -585 35 -29 75 -30 124 -5 28 14 66 24 89 24 54 0 103 33 131 89 14
27 34 50 50 57 54 23 93 84 93 146 0 20 8 37 25 50 53 42 71 127 40 188 -14
27 -14 33 0 60 8 16 15 49 15 74 0 38 -6 52 -35 85 -29 31 -35 47 -35 82 -1
24 -9 58 -18 76 -19 36 -77 83 -102 83 -11 0 -21 14 -29 39 -16 55 -73 101
-124 101 -29 0 -48 8 -74 30 -36 32 -86 39 -130 18z"/>
<path d="M2176 2954 c-3 -9 -6 -100 -6 -203 0 -203 2 -211 55 -211 46 0 55 15
55 97 l0 73 55 0 55 0 0 -73 c0 -82 9 -97 55 -97 53 0 55 7 55 216 0 214 -1
218 -67 212 l-38 -3 -3 -87 -3 -88 -54 0 -55 0 0 78 c0 47 -5 83 -12 90 -18
18 -85 15 -92 -4z"/>
<path d="M2679 2943 c-6 -15 -29 -89 -51 -163 -22 -74 -46 -152 -54 -174 -18
-47 -6 -66 40 -66 42 0 53 9 63 50 9 34 11 35 58 35 48 0 49 -1 56 -34 8 -39
23 -51 65 -51 49 0 56 17 35 81 -10 30 -31 95 -46 144 -14 50 -34 115 -44 145
l-17 55 -47 3 c-44 3 -48 1 -58 -25z"/>
<path d="M3009 2946 c-51 -35 -69 -86 -69 -193 0 -142 44 -203 150 -211 90 -7
152 36 154 105 l1 38 -45 0 c-37 0 -45 -4 -48 -20 -6 -30 -22 -45 -48 -45 -45
0 -54 23 -54 139 0 119 7 135 56 129 26 -3 37 -14 48 -50 7 -25 84 -25 93 -1
12 31 -20 95 -57 114 -52 28 -136 25 -181 -5z"/>
<path d="M3307 2964 c-4 -4 -7 -98 -7 -210 0 -218 -1 -214 55 -214 35 0 44 19
47 100 l3 75 23 -49 c13 -26 34 -66 48 -87 22 -36 28 -39 69 -39 30 0 47 5 51
14 3 8 -20 58 -50 111 -31 53 -56 102 -56 108 0 7 23 47 50 90 65 101 65 109
-2 105 l-53 -3 -42 -80 -42 -80 -3 80 -3 80 -40 3 c-23 2 -44 0 -48 -4z"/>
<path d="M3752 2953 c-6 -10 -26 -74 -47 -143 -20 -69 -46 -153 -57 -187 -11
-35 -17 -67 -13 -73 9 -15 81 -12 94 3 6 8 14 28 17 45 6 31 9 32 54 32 48 0
48 0 62 -42 13 -42 14 -43 58 -43 44 0 45 1 44 30 0 17 -12 68 -27 115 -14 47
-37 122 -50 168 -14 45 -30 89 -37 97 -18 22 -87 20 -98 -2z"/>
<path d="M3957 2964 c-4 -4 -7 -20 -7 -36 0 -31 14 -40 64 -42 l31 -1 3 -167
c2 -167 3 -168 26 -174 13 -3 35 -4 47 -2 24 3 24 4 29 173 l5 170 30 1 c68 3
66 1 63 42 l-3 37 -141 3 c-77 1 -143 -1 -147 -4z"/>
<path d="M4307 2964 c-4 -4 -7 -99 -7 -210 l0 -204 24 -6 c13 -3 35 -4 47 -2
23 3 24 7 27 86 l3 82 59 0 60 0 0 -80 c0 -76 1 -80 24 -86 13 -3 35 -4 47 -2
l24 3 0 210 0 210 -45 0 -45 0 -5 -85 -5 -85 -55 0 -55 0 -5 85 -5 85 -40 3
c-23 2 -44 0 -48 -4z"/>
<path d="M4775 2951 c-63 -38 -85 -90 -85 -196 0 -145 56 -215 170 -215 121 0
176 77 168 236 -5 97 -25 143 -77 172 -50 28 -133 30 -176 3z"/>
<path d="M5104 2957 c-2 -7 -3 -102 -2 -212 l3 -200 45 0 45 0 3 115 3 114 62
-114 c65 -121 76 -130 133 -116 l24 6 -2 208 -3 207 -45 0 -45 0 -5 -110 -5
-110 -32 62 c-46 87 -73 136 -85 151 -14 16 -87 16 -94 -1z"/>
<path d="M152 2833 l3 -38 92 -3 c84 -2 93 -1 103 18 6 11 8 30 5 40 -6 18
-16 20 -106 20 l-100 0 3 -37z"/>
<path d="M1772 2833 l3 -38 95 0 95 0 3 38 3 37 -101 0 -101 0 3 -37z"/>
<path d="M1557 2342 c-10 -10 -17 -23 -17 -28 0 -5 29 -39 65 -74 68 -67 82
-71 109 -27 9 14 -1 28 -54 82 -35 36 -69 65 -76 65 -6 0 -18 -8 -27 -18z"/>
<path d="M470 2285 c-53 -54 -63 -68 -54 -82 27 -44 41 -40 109 27 36 35 65
69 65 76 0 13 -32 44 -46 44 -5 0 -39 -29 -74 -65z"/>
<path d="M4174 2226 c-60 -27 -94 -102 -62 -134 20 -20 38 -14 59 23 29 49 54
61 85 40 41 -27 30 -51 -66 -144 -75 -74 -90 -93 -90 -119 0 -40 13 -44 155
-40 l110 3 0 30 0 30 -78 5 -78 5 70 63 c85 76 105 121 78 177 -9 19 -27 41
-40 49 -34 23 -106 29 -143 12z"/>
<path d="M3224 2216 c-60 -27 -94 -102 -62 -134 20 -20 38 -14 59 23 29 49 54
61 85 40 41 -27 30 -51 -66 -144 -75 -74 -90 -93 -90 -119 0 -40 13 -44 155
-40 l110 3 0 30 0 30 -78 5 -78 5 70 63 c85 76 105 121 78 177 -9 19 -27 41
-40 49 -34 23 -106 29 -143 12z"/>
<path d="M3540 2212 c-57 -29 -75 -72 -75 -182 0 -83 3 -100 24 -134 55 -88
168 -87 223 1 20 33 23 51 23 128 0 106 -21 157 -75 187 -43 23 -75 23 -120 0z"/>
<path d="M3864 2216 c-60 -27 -94 -102 -62 -134 20 -20 38 -14 59 23 29 49 54
61 85 40 41 -27 30 -51 -66 -144 -75 -74 -90 -93 -90 -119 0 -40 13 -44 155
-40 l110 3 0 30 0 30 -78 5 -78 5 70 63 c85 76 105 121 78 177 -9 19 -27 41
-40 49 -34 23 -106 29 -143 12z"/>
<path d="M821 2156 c-14 -17 -4 -63 16 -75 8 -4 38 -6 65 -3 37 3 49 2 44 -7
-4 -6 -25 -11 -46 -11 -29 0 -40 -5 -45 -19 -11 -35 6 -68 51 -99 45 -32 56
-52 29 -52 -8 0 -15 6 -15 14 0 11 -20 26 -35 26 -14 0 -24 -42 -15 -64 9 -23
15 -26 63 -26 62 0 77 11 77 57 0 28 -7 38 -45 65 -25 18 -45 38 -45 45 0 20
16 15 33 -9 12 -19 19 -21 34 -12 24 15 28 48 8 68 -15 15 -13 16 22 15 21 0
32 -3 26 -6 -9 -3 -13 -35 -13 -108 0 -86 3 -104 16 -109 34 -13 44 12 44 108
0 58 -4 96 -12 104 -9 9 -3 12 27 12 32 -1 37 -3 23 -11 -15 -8 -18 -25 -18
-108 0 -84 3 -100 17 -105 22 -9 43 18 43 56 0 18 5 28 15 28 11 0 15 -11 15
-39 0 -27 5 -41 17 -45 31 -12 42 15 45 114 l3 95 -25 0 c-21 0 -26 -6 -30
-35 -3 -23 -11 -36 -22 -38 -15 -3 -18 4 -18 36 0 23 -5 43 -12 45 -11 5 21 8
98 11 11 1 28 7 37 15 22 17 22 67 1 75 -9 3 -116 6 -239 6 -179 0 -225 -3
-234 -14z"/>
<path d="M874 1815 c-4 -8 -3 -26 0 -40 l6 -25 180 0 180 0 12 25 c8 19 8 28
-2 40 -18 22 -368 23 -376 0z"/>
<path d="M958 1728 c-15 -11 -16 -17 -5 -38 28 -56 123 -74 183 -35 28 18 51
61 40 73 -14 14 -200 14 -218 0z"/>
</g>
</svg>
